{
  "accessors": [
    {
      "bufferView": 0,
      "componentType": 5126,
      "count": 1469,
      "type": "VEC3",
      "max": [
        0.095461994409561157,
        0.60525137186050415,
        0.072382979094982147
      ],
      "min": [
        -0.095461994409561157,
        0.080403938889503479,
        -0.0642048791050911
      ]
    },
    {
      "bufferView": 1,
      "componentType": 5126,
      "count": 1469,
      "type": "VEC3",
      "max": [
        1.0,
        1.0,
        1.0
      ],
      "min": [
        -1.0,
        -1.0,
        -0.99846422672271729
      ]
    },
    {
      "bufferView": 2,
      "componentType": 5126,
      "count": 1469,
      "type": "VEC4",
      "max": [
        1.0,
        0.99494189023971558,
        0.99993491172790527,
        -1.0
      ],
      "min": [
        -0.99990808963775635,
        -0.99569690227508545,
        -0.99984335899353027,
        -1.0
      ]
    },
    {
      "bufferView": 3,
      "componentType": 5126,
      "count": 1469,
      "type": "VEC2",
      "max": [
        0.99227011203765869,
        0.97932350635528564
      ],
      "min": [
        0.0075033903121948242,
        0.015806151553988457
      ]
    },
    {
      "bufferView": 4,
      "componentType": 5125,
      "count": 5733,
      "type": "SCALAR",
      "max": [
        1468.0
      ],
      "min": [
        0.0
      ]
    }
  ],
  "asset": {
    "generator": "Plattar UnityGLTF (2021.3.17f1)",
    "version": "2.0"
  },
  "buffers": [
    {
      "uri": "CowBoyLong_Pants.bin",
      "byteLength": 93444
    }
  ],
  "bufferViews": [
    {
      "buffer": 0,
      "byteLength": 17628
    },
    {
      "buffer": 0,
      "byteOffset": 17628,
      "byteLength": 17628
    },
    {
      "buffer": 0,
      "byteOffset": 35256,
      "byteLength": 23504
    },
    {
      "buffer": 0,
      "byteOffset": 58760,
      "byteLength": 11752
    },
    {
      "buffer": 0,
      "byteOffset": 70512,
      "byteLength": 22932
    }
  ],
  "images": [
    {
      "uri": "CowBoyLong_Pants.png",
      "name": "CowBoyLong_Pants_i"
    }
  ],
  "materials": [
    {
      "pbrMetallicRoughness": {
        "baseColorTexture": {
          "index": 0
        },
        "metallicFactor": 0.0
      },
      "name": "CowBoyLong_Pants_i"
    }
  ],
  "meshes": [
    {
      "primitives": [
        {
          "attributes": {
            "POSITION": 0,
            "NORMAL": 1,
            "TANGENT": 2,
            "TEXCOORD_0": 3
          },
          "indices": 4,
          "material": 0
        }
      ],
      "name": "CowBoyLong_Pants"
    }
  ],
  "nodes": [
    {
      "mesh": 0,
      "rotation": [
        8.14603354E-08,
        -4.440909E-16,
        -1.67088582E-14,
        -1.0
      ],
      "name": "CowBoyLong_Pants"
    }
  ],
  "samplers": [
    {
      "minFilter": 9729
    }
  ],
  "scene": 0,
  "scenes": [
    {
      "nodes": [
        0
      ],
      "name": "CowBoyLong_Pants"
    }
  ],
  "textures": [
    {
      "sampler": 0,
      "source": 0,
      "name": "CowBoyLong_Pants_i"
    }
  ]
}